<svg width="18" height="26" viewBox="0 0 18 26" fill="none" xmlns="http://www.w3.org/2000/svg">
<path d="M17.4712 12.8804C16.9121 13.8666 11.7059 22.0377 9.17259 26C7.60022 23.4465 4.00125 17.7056 2.18429 15.1697C-0.0869076 11.9999 0.000445676 8.8388 0.000445676 8.38983C0.000445676 7.50883 1.39811 -0.50331 9.08524 0.024995C19.8298 0.817453 18.17 11.6477 17.4712 12.8804Z" fill="#9FCE00"/>
<path d="M4.54283 9.09288C4.54283 11.5243 6.49831 13.4954 8.91052 13.4954C11.3227 13.4954 13.2782 11.5243 13.2782 9.09288C13.2782 6.66143 11.3227 4.69034 8.91052 4.69034C6.49831 4.69034 4.54283 6.66143 4.54283 9.09288Z" fill="#3E509D"/>
</svg>
