<svg width="376" height="431" viewBox="0 0 376 431" fill="none" xmlns="http://www.w3.org/2000/svg">
<path d="M207.741 93.8756C208.065 93.2644 208.033 92.7696 207.947 92.3221C207.827 91.7612 207.905 91.1719 208.079 90.5953C208.183 90.1731 208.233 89.7982 208.289 89.3697C207.871 88.4967 207.848 87.567 207.778 86.6311C207.703 85.3675 207.627 84.1039 207.545 82.8939C207.552 82.8403 207.511 82.7804 207.518 82.7268C207.8 80.9654 207.194 79.3047 207.032 77.5936C206.948 76.7648 206.761 75.9769 206.827 75.1135C206.869 74.7921 206.762 74.5054 206.709 74.1714C206.509 73.1094 206.16 72.082 205.961 71.0201C205.788 70.1251 205.362 69.3057 204.991 68.439C204.884 68.1522 204.728 67.8591 204.668 67.5787C204.309 65.8959 203.634 64.3893 202.967 62.8294C202.084 60.6958 201.044 58.6505 199.997 56.6587C199.038 54.733 197.908 53.0027 196.73 51.2661C195.308 49.1702 193.839 47.068 192.307 45.0666C191.521 44.036 190.728 43.0589 189.778 42.1701C189.174 41.5995 188.632 40.9283 188.075 40.3641C187.01 39.242 185.993 38.1261 184.913 37.1111C183.834 36.0962 182.652 35.1222 181.518 34.1545C180.689 33.4453 179.813 32.7298 178.985 32.0205C178.849 31.948 178.767 31.8282 178.631 31.7557C175.872 29.8643 173.065 27.9665 170.36 26.0277C167.519 24.0165 164.547 22.2606 161.554 20.6652C159.146 19.4199 156.669 18.3289 154.261 17.0835C150.437 15.1602 146.393 13.8072 142.403 12.407C140.081 11.6091 137.738 10.9719 135.355 10.2748C133.816 9.79853 132.255 9.48314 130.702 9.11401C130.232 8.9973 129.736 8.71339 129.266 8.59665C128.748 8.47363 128.257 8.51767 127.732 8.4482C126.355 8.21149 124.931 7.9685 123.569 7.62463C122.023 7.20196 120.427 7.15424 118.866 6.83866C116.113 6.36522 113.365 6.21939 110.584 5.96021C110.345 5.92863 110.1 5.95063 109.868 5.86548C107.566 5.28817 105.186 5.30008 102.881 5.10405C102.404 5.04089 101.953 5.14482 101.469 5.13522C101.033 5.13195 100.644 5.135 100.207 5.13171C98.7619 5.04939 97.3234 4.91356 95.8302 4.8249C94.9166 4.75848 93.9625 4.63205 93.0134 4.83344C92.7129 4.9027 92.3383 4.79871 92.0449 4.81437C91.315 4.82679 90.5304 4.88645 89.8006 4.89884C89.5072 4.91452 89.2139 4.93012 88.9753 4.89854C86.5543 4.85059 84.1932 5.0832 81.7986 5.20224C79.943 5.28365 78.1138 5.53203 76.306 5.61973C74.696 5.67915 73.1268 5.79844 71.5291 6.13198C70.1771 6.44357 68.7986 6.58805 67.4943 6.90593C65.787 7.33402 64.0533 7.59516 62.3196 7.8562C60.1829 8.22746 58.0391 8.65226 55.9482 9.41107C55.0327 9.72593 54.0907 9.87374 53.1752 10.1886C51.9591 10.5727 50.7361 11.0103 49.4724 11.3881C47.7986 11.9296 46.0843 12.4113 44.4105 12.9528C42.7368 13.4943 41.0631 14.0358 39.3822 14.6309C38.1114 15.0622 36.8671 15.6606 35.644 16.0983C34.4209 16.536 33.2385 17.0335 32.0418 17.6382C30.428 18.4601 28.7543 19.0016 27.04 19.4833C26.3365 19.6627 25.7143 19.9619 25.0709 20.4217C23.1476 21.7478 21.1237 22.7336 19.0187 23.5996C17.8362 24.0971 16.7757 24.7743 15.708 25.505C14.5307 26.3303 13.3605 27.1019 12.0348 27.5806C11.5223 27.7852 10.9956 28.0971 10.5094 28.4688C9.69451 29.124 8.76478 29.5459 7.80153 29.8544C7.04334 30.0811 6.27804 30.3614 5.46501 30.6353C4.62042 30.4145 3.81634 30.2535 3.12386 29.6168C2.78473 29.2449 2.31478 29.1281 1.83056 29.1186C1.39408 29.1153 0.964647 29.0585 0.582936 29.008C0.372752 28.7621 0.210233 28.5224 1.47027e-05 28.2766C0.0619097 28.1758 0.0760826 28.0687 0.178591 28.0278C1.60864 27.127 3.03163 26.2797 4.41393 25.3726C5.26242 24.8309 6.06315 24.2828 6.97157 24.0215C7.37455 23.9114 7.75109 23.6342 8.0799 23.3507C8.57314 22.9254 9.14051 22.6734 9.70786 22.4215C10.8355 21.9712 11.882 21.4013 12.8613 20.6043C13.8477 19.7538 14.9154 19.023 15.9354 18.2859C16.0998 18.1442 16.2641 18.0024 16.4144 17.9678C17.8283 17.5554 19.1082 16.6891 20.6033 16.3965C21.4976 16.2423 22.3248 15.8614 23.1256 15.3133C23.8167 14.8598 24.5891 14.5259 25.2802 14.0724C25.8618 13.7133 26.5246 13.474 27.0656 13.055C27.9282 12.4061 28.8579 11.9842 29.8141 11.7292C30.8728 11.4333 31.9243 11.1909 32.983 10.895C33.8843 10.6873 34.7451 10.4197 35.5387 9.92523C36.7089 9.15351 38.0062 8.88918 39.2912 8.3507C40.6238 7.81856 42.0835 7.7937 43.4091 7.31508C44.3723 7.00657 45.3356 6.69809 46.2989 6.38955C46.4491 6.35494 46.5993 6.32028 46.7089 6.22576C47.8933 5.34694 49.2311 5.14249 50.6238 4.89079C51.3678 4.77127 52.0925 4.43115 52.8101 4.14458C53.8352 3.73525 54.8868 3.49298 56.0125 3.42396C56.2582 3.40198 56.5038 3.37998 56.7018 3.35167C58.0538 3.0401 59.4058 2.72847 60.7508 2.47045C61.5019 2.29735 62.2388 2.23147 62.9758 2.1655C64.3542 2.02096 65.7875 1.82912 67.2137 1.69086C67.3639 1.65626 67.5141 1.62166 67.6167 1.58071C69.6386 0.976285 71.6992 0.812916 73.7669 0.596054C75.1454 0.451509 76.4832 0.247159 77.8475 0.209716C79.9964 0.112644 82.1525 -0.0380072 84.3543 0.198937C85.7927 0.334858 87.2311 0.470715 88.7405 0.0709387C89.0957 -0.0455297 89.4774 0.00500268 89.8592 0.055531C92.3614 0.22327 94.8088 0.438269 97.3111 0.605982C97.843 0.621904 98.3343 0.577844 98.8734 0.540161C99.2621 0.537136 99.6103 0.474187 99.992 0.524715C103.98 0.834665 107.976 1.09107 111.957 1.45457C113.73 1.6347 115.474 2.02909 117.232 2.31632C117.375 2.33527 117.518 2.35422 117.661 2.37316C119.038 2.6099 120.414 2.84666 121.832 3.14327C123.106 3.42095 124.38 3.69857 125.701 3.98254C126.649 4.16243 127.636 4.40213 128.576 4.63557C129.803 4.90694 131.029 5.17831 132.296 5.50952C133.754 5.86601 135.211 6.22241 136.655 6.68603C138.984 7.43036 141.313 8.17482 143.642 8.91911C145.174 9.44895 146.822 9.83071 148.257 10.7292C148.393 10.8017 148.529 10.8741 148.624 10.8868C150.66 11.6468 152.695 12.4067 154.731 13.1667C154.914 13.2455 155.105 13.2709 155.241 13.3434C156.459 14.0496 157.78 14.3335 158.943 15.0869C159.392 15.3644 159.909 15.4875 160.365 15.7113C162.243 16.5595 164.074 17.4014 165.821 18.5048C165.869 18.5111 165.91 18.5709 165.957 18.5772C167.236 19.1826 168.509 19.8416 169.712 20.6549C170.473 21.1372 171.304 21.4652 172.113 21.9538C173.874 22.9501 175.526 24.0408 177.219 25.1914C179.761 26.8906 182.234 28.7442 184.715 30.5443C184.803 30.6104 184.844 30.6703 184.932 30.7366C186.089 31.1623 186.827 32.1866 187.737 33.0156C188.172 33.4002 188.606 33.7847 189.048 34.1156C190.903 35.5058 192.648 36.9905 194.256 38.784C196.501 41.2614 198.746 43.7387 200.991 46.2161C201.12 46.3422 201.297 46.4746 201.371 46.648C202.384 48.5263 203.891 49.9794 204.85 51.905C205.154 52.5448 205.615 53.0964 206.028 53.6417C206.604 54.4265 207.118 55.3121 207.584 56.1914C208.361 57.6568 209.247 59.0279 209.908 60.6414C210.312 61.6215 210.921 62.5197 211.325 63.4998C212.074 65.1796 212.768 66.9065 213.366 68.6209C213.797 69.768 214.023 70.997 214.399 72.1914C214.633 72.9856 214.923 73.7325 215.157 74.5266C215.299 74.9269 215.392 75.3207 215.486 75.7146C215.985 78.179 216.491 80.5898 216.785 83.136C216.824 83.5771 216.903 84.0782 217.037 84.532C217.265 85.3797 217.39 86.2684 217.317 87.1854C217.31 87.2389 217.303 87.2925 217.296 87.3461C217.56 89.0162 217.531 90.702 217.652 92.3532C217.658 92.6809 217.718 92.9614 217.825 93.2482C217.892 93.475 218.062 93.661 218.184 93.8407C218.995 93.9481 219.703 94.0963 220.474 94.1439C221.053 94.1661 221.593 94.1283 222.172 94.1506C222.997 94.1508 223.87 94.1574 224.689 94.2112C226.039 94.2809 227.422 94.4642 228.78 94.4803C229.652 94.4868 230.462 94.9754 231.411 94.774C232.305 94.6199 233.204 94.7935 234.07 94.8536C234.984 94.9201 235.85 94.9801 236.756 95.1001C237.52 95.2011 238.228 95.3495 238.985 95.5042C239.366 95.5547 239.748 95.6052 240.082 95.6494C241.52 95.7853 243.007 95.9275 244.452 96.0098C245.413 96.0826 246.415 96.2151 247.355 96.4486C248.997 96.8839 250.66 97.1586 252.308 97.5403C253.487 97.8054 254.659 98.1239 255.878 98.4488C256.666 99.0981 257.729 99.1301 258.586 99.625C258.77 99.7039 258.947 99.8363 259.09 99.8552C260.323 100.073 261.604 100.297 262.838 100.515C263.124 100.553 263.41 100.591 263.69 100.682C264.99 101.127 266.236 101.619 267.529 102.117C268.04 102.294 268.503 102.464 269.013 102.64C269.612 102.883 270.273 103.025 270.865 103.322C271.913 103.842 272.989 104.148 274.058 104.507C275.031 104.854 276.067 105.1 276.834 105.91C277.051 106.103 277.33 106.194 277.602 106.339C278.705 106.812 279.759 107.279 280.862 107.752C281.093 107.837 281.325 107.922 281.502 108.054C282.289 108.704 283.189 108.877 284.074 109.158C284.959 109.439 285.837 109.773 286.694 110.268C287.592 110.823 288.496 111.324 289.47 111.671C290.58 112.09 291.613 112.718 292.654 113.292C293.967 114.01 295.17 114.824 296.49 115.489C300.074 117.381 303.405 119.729 306.851 121.93C307.926 122.617 309.055 123.257 310.06 124.099C311.628 125.451 313.349 126.387 314.925 127.686C317.017 129.489 319.054 131.339 321.193 133.148C322.809 134.507 324.206 136.055 325.768 137.461C325.985 137.653 326.203 137.845 326.365 138.085C327.13 139.276 328.183 140.124 329.174 141.073C329.859 141.763 330.545 142.453 331.223 143.197C331.521 143.509 331.82 143.821 332.166 144.14C332.682 144.644 333.253 145.101 333.597 145.801C333.671 145.974 333.793 146.154 333.969 146.286C335.192 147.32 336.126 148.697 337.17 149.98C337.712 150.651 338.193 151.423 338.892 152.007C339.198 152.265 339.435 152.678 339.726 153.044C340.634 154.254 341.535 155.518 342.326 156.876C342.522 157.229 342.773 157.535 343.023 157.84C343.85 158.931 344.615 160.122 345.434 161.266C346.538 162.83 347.573 164.547 348.512 166.252C349.222 167.491 349.98 168.736 350.737 169.981C351.454 171.166 352.076 172.338 352.738 173.571C352.894 173.864 353.042 174.21 353.19 174.557C353.386 174.91 353.527 175.31 353.778 175.616C354.712 176.993 355.599 178.364 356.109 180.012C356.183 180.186 356.305 180.365 356.379 180.539C357.204 182.011 358.076 183.489 358.894 185.014C359.508 186.24 360.123 187.466 360.682 188.739C361.728 191.112 362.828 193.438 363.818 195.858C364.808 198.279 365.642 200.787 366.537 203.195C366.778 203.935 367.075 204.629 367.364 205.376C367.606 206.116 367.848 206.857 368.09 207.597C368.298 208.225 368.452 208.899 368.715 209.479C369.442 211.319 369.869 213.229 370.398 215.098C370.633 215.892 370.82 216.68 371.055 217.474C371.282 218.322 371.51 219.169 371.683 220.064C371.981 221.848 372.429 223.597 372.87 225.399C373.438 227.709 373.753 230.095 374.014 232.528C374.079 233.136 374.137 233.798 374.202 234.406C374.45 236.564 374.801 238.682 374.859 240.815C374.911 242.621 375.304 244.417 375.104 246.298C375.003 247.429 375.037 248.633 375.182 249.743C375.259 250.625 375.139 251.535 375.168 252.411C375.291 255.153 374.882 257.879 374.759 260.642C374.587 264.871 374.327 269.033 373.917 273.231C373.866 273.987 373.917 274.702 373.865 275.458C373.776 276.864 373.633 278.316 373.448 279.709C373.349 280.459 373.209 281.149 373.253 281.918C373.278 282.466 373.199 283.055 373.121 283.645C373.029 284.341 372.896 284.978 372.804 285.674C372.548 289.074 372.19 292.515 371.791 295.896C371.647 297.349 371.353 298.836 371.162 300.282C370.814 302.907 370.236 305.446 369.697 308.046C369.145 310.753 368.49 313.5 367.89 316.201C367.275 319.008 366.484 321.683 365.686 324.412C365.075 326.457 364.458 328.555 363.8 330.594C363.702 330.962 363.605 331.331 363.467 331.64C362.434 333.574 362 335.752 361.287 337.837C360.969 338.776 360.555 339.703 360.196 340.582C360.058 340.891 359.879 341.139 359.796 341.401C359.523 342.728 358.931 343.903 358.434 345.091C357.875 346.379 357.452 347.74 356.852 348.969C356.046 350.661 355.192 352.347 354.385 354.038C354.04 354.81 353.743 355.589 353.405 356.307C352.206 358.765 350.952 361.269 349.705 363.721C349.374 364.385 349.003 364.99 348.632 365.595C347.387 367.665 346.142 369.735 344.89 371.858C343.892 373.525 342.861 375.078 341.776 376.679C340.697 378.226 339.747 379.899 338.709 381.506C337.74 382.958 336.731 384.35 335.714 385.796C335 386.792 334.326 387.847 333.611 388.843C332.437 390.377 331.256 391.965 330.082 393.499C329.444 394.287 328.853 395.081 328.311 395.881C328.369 396.543 328.762 396.868 329.102 397.239C329.997 398.176 330.852 399.052 331.467 400.278C331.663 400.631 331.968 400.889 332.274 401.148C333.89 402.506 335.226 404.155 336.451 405.898C337.149 406.862 337.901 407.779 338.763 408.602C339.666 409.485 340.397 410.562 341.183 411.593C341.597 412.138 342.003 412.737 342.416 413.282C342.586 413.468 342.755 413.654 342.932 413.787C343.598 414.257 343.997 414.909 344.382 415.668C344.848 416.548 345.417 417.386 345.993 418.171C347.089 419.788 348.029 421.493 348.961 423.251C349.353 423.957 349.397 424.726 349.243 425.523C349.124 426.053 348.884 426.402 348.364 426.661C347.205 426.616 345.97 426.78 344.696 426.502C343.374 426.218 342.084 426.429 340.772 426.8C340.267 426.951 339.769 427.049 339.237 427.033C338.8 427.03 338.404 427.086 338.001 427.196C336.785 427.581 335.516 427.631 334.186 427.782C332.947 427.236 331.528 427.321 330.178 427.251C328.971 427.2 327.75 427.257 326.529 427.313C325.505 427.341 324.468 427.476 323.445 427.504C321.787 427.557 320.168 428.052 318.537 428.272C317.199 428.476 315.854 428.734 314.456 428.658C313.495 428.585 312.465 428.667 311.489 428.702C310.91 428.679 310.385 428.61 309.826 428.427C309.268 428.244 308.634 428.269 308.013 428.187C307.481 428.171 306.99 428.215 306.451 428.253C304.984 428.331 303.518 428.409 302.098 428.494C301.171 428.535 300.229 428.683 299.287 428.83C298.242 429.019 297.265 429.435 296.402 430.084C296.293 430.178 296.142 430.213 295.985 430.301C295.801 430.222 295.658 430.203 295.481 430.071C295.257 429.932 295.047 429.686 294.83 429.494C293.431 428.328 292.162 426.906 290.646 425.888C290.109 425.544 289.594 425.04 289.242 424.394C289.006 423.981 288.557 423.704 288.122 423.319C287.895 422.471 287.681 421.517 287.427 420.502C288.127 419.613 289.099 418.87 289.384 417.818C289.286 417.096 289.214 416.541 289.196 415.939C289.056 414.068 289.311 412.139 289.416 410.246C289.453 409.596 289.531 409.007 289.759 408.383C289.897 408.075 289.899 407.693 289.949 407.318C290.057 406.133 290.173 404.895 290.281 403.71C290.345 403.228 290.456 402.752 290.37 402.305C290.259 401.309 290.523 400.417 290.739 399.519C290.767 399.305 290.891 399.104 290.919 398.889C291.034 397.651 291.477 396.51 291.816 395.411C292.301 393.949 292.691 392.474 293.216 391.072C293.763 389.509 294.405 387.959 295.047 386.409C295.413 385.476 295.82 384.603 296.234 383.677C296.593 382.798 297.041 381.985 297.624 381.245C297.792 380.341 298.09 379.562 298.666 378.876C299.249 378.135 299.711 377.215 299.982 376.27C300.412 374.855 301.162 373.592 302.081 372.514C302.424 372.124 302.767 371.733 303.103 371.396C303.704 371.258 304.193 371.595 304.69 371.879C305.594 372.38 306.546 372.888 307.396 373.436C308.967 374.407 310.461 375.586 311.613 377.156C312.765 378.725 314.142 380.052 315.418 381.42C316.015 382.044 316.714 382.627 317.092 383.441C317.173 383.56 317.255 383.68 317.384 383.806C318.083 384.389 318.571 385.108 319.106 385.833C319.479 386.318 319.865 386.696 320.383 386.819C320.691 386.697 320.862 386.501 320.898 386.233C320.976 385.644 321.326 385.2 321.676 384.756C322.128 384.271 322.533 383.779 323.055 383.14C323.37 382.963 323.794 382.692 324.313 382.434C324.794 381.735 325.289 380.928 325.825 380.182C326.299 379.536 326.78 378.836 327.295 378.25C328.44 376.93 329.321 375.412 330.29 373.959C330.833 373.159 331.247 372.233 331.878 371.499C332.735 370.522 333.321 369.401 334.09 368.358C334.626 367.611 335.161 366.864 335.521 365.985C335.528 365.932 335.583 365.885 335.59 365.831C336.571 364.653 337.247 363.216 338.092 361.965C338.456 361.414 338.82 360.863 339.192 360.258C339.632 359.498 339.984 358.673 339.866 357.731C340.271 357.239 340.587 356.682 340.985 356.244C341.438 355.759 341.761 355.147 341.854 354.451C341.925 353.915 342.139 353.399 342.434 353.002C343.265 351.858 343.824 350.569 344.424 349.341C344.554 349.085 344.63 348.877 344.802 348.682C345.536 347.907 345.902 346.974 346.227 345.982C346.456 345.358 346.732 344.741 347.144 344.196C347.775 343.462 348.1 342.469 348.283 341.457C348.479 340.339 348.948 339.365 349.369 338.385C349.569 337.976 349.721 337.56 349.88 337.09C350.234 335.884 350.765 334.809 351.486 333.76C352.208 332.711 352.8 331.536 352.978 330.197C353.112 329.179 353.35 328.12 353.627 327.122C353.891 326.23 354.284 325.464 354.996 324.85C355.316 323.53 355.651 322.102 356.019 320.788C356.2 320.158 356.483 319.487 356.711 318.863C357.201 317.729 357.541 316.629 357.704 315.397C357.881 314.058 358.065 312.665 358.849 311.515C359.089 311.166 359.256 310.643 359.265 310.208C359.313 308.743 359.784 307.388 360.152 306.074C360.346 305.337 360.596 304.552 360.838 303.821C360.921 303.559 361.005 303.298 361.033 303.084C361.258 301.751 361.442 300.358 361.667 299.025C361.843 298.067 362.011 297.163 362.227 296.265C362.464 295.206 362.565 294.075 362.707 293.004C362.984 290.915 363.451 288.851 363.632 286.749C363.668 286.481 363.703 286.213 363.739 285.946C363.949 284.72 364.167 283.441 364.092 282.177C364.041 281.462 364.188 280.718 364.239 279.962C364.353 279.105 364.616 278.213 364.491 277.324C364.458 277.211 364.52 277.11 364.534 277.003C365.132 274.684 365.015 272.27 365.374 269.919C365.431 269.491 365.44 269.056 365.394 268.668C365.377 268.067 365.353 267.518 365.526 266.942C365.609 266.68 365.597 266.406 365.632 266.138C365.675 264.345 365.671 262.546 365.809 260.766C365.882 259.849 366.153 258.903 366.39 257.845C366.281 256.468 366.201 254.876 366.454 253.329C366.56 252.526 366.483 251.643 366.398 250.815C366.34 250.153 366.371 249.557 366.551 248.927C366.649 248.558 366.698 248.183 366.693 247.856C366.59 245.335 366.487 242.814 366.574 240.318C366.569 239.99 366.509 239.71 366.456 239.376C366.3 237.993 366.095 236.603 366.191 235.144C366.228 234.495 366.163 233.887 366.098 233.278C365.927 232.002 365.764 230.672 365.791 229.368C365.773 228.766 365.667 228.098 365.602 227.49C365.419 225.939 365.236 224.389 365.005 222.832C364.847 221.83 364.578 220.923 364.372 219.914C364.259 219.3 364.091 218.732 363.979 218.118C363.548 215.499 362.92 212.909 362.135 210.407C361.383 208.018 360.638 205.576 359.894 203.133C358.967 200.231 357.931 197.423 356.752 194.596C356.098 192.929 355.343 191.302 354.682 189.689C353.833 187.669 352.882 185.69 351.93 183.711C351.545 182.951 351.16 182.192 350.727 181.426C348.93 178.135 347.18 174.851 345.382 171.561C343.977 168.977 342.516 166.44 341.049 163.956C340.535 163.071 339.911 162.28 339.39 161.447C337.003 157.48 334.348 153.694 331.508 150.212C329.088 147.22 326.621 144.223 323.967 141.528C322.726 140.274 321.484 139.019 320.235 137.818C319.074 136.683 317.961 135.555 316.746 134.468C315.354 133.248 313.962 132.028 312.563 130.862C310.471 129.058 308.256 127.457 305.986 125.903C303.09 123.939 300.201 121.921 297.106 120.367C295.011 119.327 292.984 118.132 290.943 117.044C287.814 115.376 284.631 113.756 281.295 112.551C280.88 112.387 280.519 112.176 280.152 112.018C279.92 111.933 279.75 111.747 279.512 111.715C277.264 111.091 275.217 110.057 273.038 109.278C270.213 108.25 267.333 107.269 264.438 106.395C263.274 106.023 262.095 105.758 260.924 105.439C260.358 105.31 259.855 105.08 259.289 104.951C258.731 104.768 258.213 104.645 257.648 104.515C257.409 104.484 257.171 104.452 256.939 104.367C255.741 103.881 254.515 103.61 253.274 103.446C252.511 103.345 251.802 103.196 251.039 103.095C250.514 103.026 250.044 102.909 249.519 102.84C249.042 102.777 248.579 102.606 248.143 102.603C246.642 102.568 245.185 102.211 243.741 101.748C243.319 101.637 242.944 101.533 242.515 101.476C241.076 101.34 239.652 101.098 238.256 100.64C237.841 100.476 237.309 100.46 236.858 100.564C236.312 100.655 235.726 100.687 235.153 100.611C233.571 100.456 231.997 100.248 230.408 100.146C229.01 100.07 227.599 100.101 226.165 100.293C225.421 100.413 224.651 100.365 223.928 100.324C222.387 100.229 220.853 100.081 219.264 99.9794C218.685 99.9572 218.153 99.9413 217.571 100.3C217.145 100.953 217.134 101.769 217.226 102.544C217.351 103.432 217.04 104.318 217.117 105.2C217.122 105.528 216.929 105.884 216.832 106.253C216.535 107.031 216.285 107.815 216.363 108.698C216.414 109.413 216.138 110.031 215.862 110.648C215.434 111.682 215.244 112.747 215.279 113.95C214.653 115.012 214.306 116.165 214.184 117.457C214.063 118.368 213.84 119.319 213.433 120.192C213.172 120.703 213.046 121.285 213.015 121.881C212.971 122.584 212.838 123.22 212.515 123.831C212.122 124.597 211.92 125.388 211.759 126.239C211.702 126.667 211.598 127.089 211.453 127.452C211.239 127.969 210.793 128.4 210.668 128.983C210.494 129.56 210.375 130.089 210.114 130.599C209.824 131.324 209.67 132.121 209.379 132.846C209.02 133.725 208.709 134.61 208.629 135.581C208.286 135.972 207.991 136.369 207.593 136.806C207.225 138.12 206.809 139.428 206.386 140.789C206.296 141.104 206.165 141.359 205.986 141.608C205.327 142.556 204.899 143.59 204.743 144.768C204.629 145.625 204.196 146.331 203.803 147.097C203.535 147.661 203.266 148.225 202.949 148.782C202.756 149.138 202.556 149.548 202.282 149.784C201.837 150.216 201.568 150.78 201.259 151.284C200.997 151.794 200.687 152.298 200.426 152.809C200.088 153.527 199.757 154.192 199.281 155.219C199.165 155.367 198.822 155.758 198.595 156C198.353 156.731 198.132 157.302 197.904 157.925C196.951 158.889 196.535 160.197 195.84 161.413C195.566 161.649 195.244 161.879 194.977 162.062C194.523 162.929 194.068 163.795 193.559 164.709C193.597 165.15 193.391 165.613 193.088 166.064C192.483 166.965 191.879 167.866 191.322 168.773C190.834 169.526 190.224 170.099 189.492 170.493C189.159 171.539 188.657 172.399 188.1 173.306C187.364 174.463 186.581 175.613 185.798 176.763C185.193 177.664 184.378 178.319 183.386 178.842C183.241 179.204 183.048 179.56 182.951 179.929C182.763 180.612 182.447 181.17 181.947 181.649C181.556 182.033 181.118 182.411 180.727 182.796C179.781 183.706 178.835 184.616 178.324 185.911C178.186 186.22 177.905 186.51 177.679 186.752C176.993 187.534 176.314 188.261 175.675 189.049C174.515 190.476 173.267 191.837 171.782 192.785C171.673 192.88 171.516 192.968 171.454 193.069C170.746 194.011 169.748 194.587 168.952 195.463C168.671 195.753 168.39 196.042 168.028 196.213C167.398 196.565 166.946 197.05 166.398 197.523C165.904 197.948 165.411 198.373 164.844 198.625C164.215 198.978 163.578 199.385 163.023 199.911C161.851 201.064 160.449 201.75 159.095 202.443C158.883 202.578 158.638 202.6 158.466 202.796C157.651 203.451 156.776 203.826 155.848 203.866C155.603 203.888 155.391 204.024 155.186 204.106C153.832 204.799 152.525 205.498 151.246 206.364C150.014 207.236 148.573 207.482 147.154 207.566C146.52 207.591 145.845 207.557 145.177 207.468C144.556 207.386 143.97 207.417 143.355 207.663C142.425 208.085 141.449 208.119 140.433 208.094C138.988 208.012 137.509 207.816 136.168 207.311C134.867 206.866 133.636 206.267 132.411 205.615C130.609 204.559 128.814 203.449 126.95 202.494C126.27 202.131 125.706 201.621 125.205 201.009C123.774 199.348 122.829 197.315 121.918 195.396C121.76 194.394 122.152 193.628 122.538 192.916C122.376 191.205 121.952 190.004 120.978 188.567C120.589 187.099 120.447 185.608 120.407 184.077C120.397 183.421 120.393 182.712 120.485 182.016C120.563 181.427 120.587 180.885 120.371 180.311C120.122 179.624 120.167 178.921 120.362 178.184C120.799 176.716 120.997 175.216 120.616 173.694C120.362 172.679 120.203 171.677 120.216 170.48C120.376 170.01 120.542 169.487 120.708 168.964C120.679 168.088 120.642 167.266 120.359 166.465C120.177 166.005 120.186 165.57 120.25 165.088C120.371 164.177 120.389 163.308 120.7 162.422C120.769 162.268 120.838 162.114 120.812 161.947C120.717 160.462 121.467 159.199 121.794 157.825C121.801 157.772 121.808 157.718 121.816 157.665C122.38 156.704 122.481 155.572 122.575 154.495C122.589 154.388 122.651 154.287 122.803 153.871C122.858 153.824 123.187 153.54 123.57 153.209C123.563 153.263 123.578 153.156 123.585 153.102C123.648 152.62 123.705 152.192 123.817 151.716C123.935 151.186 124.19 150.73 124.261 150.194C124.381 149.283 124.767 148.571 125.451 148.171C125.658 147.708 125.81 147.292 125.969 146.823C125.938 146.328 125.899 145.887 125.875 145.338C126.06 145.036 126.253 144.68 126.494 144.33C126.782 143.987 127.077 143.59 127.358 143.3C127.975 142.673 128.456 141.974 128.495 140.943C130.332 139.17 131.197 136.668 132.149 134.614C133.335 133.354 134.343 132.342 135.317 131.218C135.598 130.928 135.798 130.518 135.943 130.156C136.248 129.324 136.721 128.678 137.365 128.218C138.063 127.711 138.592 127.018 138.903 126.133C139.222 125.194 139.839 124.567 140.706 124.246C141.472 123.966 142.129 123.399 142.739 122.825C143.075 122.488 143.363 122.145 143.523 121.675C143.903 120.636 144.575 119.962 145.39 119.306C146.417 118.516 147.437 117.779 148.301 116.748C148.706 116.257 149.185 115.939 149.739 115.794C150.64 115.586 151.379 115.139 152.024 114.298C152.731 113.356 153.778 112.786 154.722 112.257C155.885 111.539 157.088 110.88 158.177 109.989C159.054 109.233 159.931 108.477 161.03 108.241C161.433 108.131 161.81 107.854 162.179 107.63C163.123 107.101 164.06 106.625 164.93 105.923C165.745 105.268 166.62 104.893 167.473 104.679C168.584 103.627 169.909 103.148 171.187 102.663C172.26 102.26 173.299 101.744 174.439 101.568C174.685 101.546 174.999 101.369 175.212 101.234C176.136 100.484 177.228 100.302 178.287 100.006C178.54 99.9301 178.738 99.9017 178.983 99.8797C180.996 99.7101 182.97 99.0995 184.911 98.3753C185.116 98.2934 185.369 98.2178 185.581 98.0823C186.334 97.528 187.133 97.3612 187.953 97.0337C189.689 96.3913 191.482 96.4108 193.257 96.2096C194.041 96.15 194.84 95.9832 195.632 95.87C196.321 95.7977 197.058 95.7317 197.754 95.6059C198.15 95.5493 198.594 95.4989 198.997 95.3887C200.67 94.8472 202.369 94.8541 204.055 94.5867C205.044 94.4452 206.006 94.518 207.029 94.4899C207.243 93.9732 207.489 93.9512 207.741 93.8756ZM207.072 100.764C206.693 100.332 206.366 100.234 206.017 100.297C205.314 100.477 204.651 100.716 203.948 100.895C203.292 101.081 202.629 101.32 202.002 101.292C200.509 101.203 199.075 101.395 197.642 101.587C196.748 101.741 195.868 101.788 194.974 101.942C194.032 102.09 193.13 102.298 192.174 102.553C190.91 102.93 189.573 103.135 188.376 103.739C187.802 104.045 187.112 104.117 186.457 104.303C186.101 104.419 185.672 104.363 185.357 104.539C184.475 104.967 183.574 105.175 182.658 105.49C181.695 105.798 180.773 106.167 179.802 106.529C179.557 106.551 179.353 106.251 179.168 106.554C178.996 106.749 178.825 106.945 178.62 107.026C177.492 107.477 176.405 107.987 175.284 108.384C173.911 108.856 172.619 109.448 171.346 110.26C170.977 110.484 170.608 110.708 170.19 110.925C169.151 111.442 168.112 111.958 167.065 112.528C164.651 113.898 162.385 115.615 160.044 117.158C159.189 117.754 158.414 118.469 157.599 119.124C156.682 119.82 155.731 120.403 155.16 121.417C154.325 121.852 153.594 122.245 152.91 122.645C151.966 123.175 151.184 123.943 150.572 124.898C150.332 125.248 150.058 125.484 149.777 125.774C149.215 126.353 148.652 126.933 148.09 127.513C147.699 127.897 147.349 128.341 146.959 128.725C146.17 129.548 145.334 130.363 144.538 131.239C143.448 132.512 142.397 133.845 141.354 135.124C141.121 135.42 140.887 135.716 140.749 136.025C140.314 137.112 139.573 137.94 138.873 138.829C138.585 139.172 138.29 139.569 138.09 139.979C136.94 142.061 135.614 144.012 134.594 146.22C133.318 148.886 131.859 151.472 130.856 154.283C130.317 155.792 129.634 157.282 129.414 158.943C129.293 159.853 128.887 160.726 128.528 161.605C128.451 161.813 128.184 161.996 128.123 162.097C128.168 162.484 128.317 162.831 128.267 163.206C128.223 163.909 128.042 164.539 127.95 165.235C127.9 165.61 127.755 165.972 127.808 166.306C127.917 167.684 127.74 169.023 127.603 170.422C127.509 171.499 127.47 172.53 127.526 173.573C127.623 174.676 127.576 175.76 127.625 176.856C127.658 178.441 127.691 180.026 127.779 181.564C127.835 182.607 127.986 183.663 128.09 184.712C128.4 188.242 128.46 188.522 129.457 192.36C129.617 192.981 129.716 193.703 129.726 194.358C129.744 194.96 129.816 195.515 130.038 196.035C130.342 196.675 130.536 197.409 130.84 198.049C131.892 200.368 131.892 200.368 133.714 201.645C133.802 201.711 133.897 201.724 134.04 201.743C134.786 201.242 135.721 201.148 136.573 201.315C136.955 201.365 137.303 201.302 137.699 201.246C138.941 201.029 140.171 200.537 141.454 200.38C142.342 200.28 143.229 200.179 143.922 199.344C143.977 199.297 144.079 199.256 144.182 199.215C145.118 198.74 146.096 198.324 147.04 197.795C147.559 197.537 148.086 197.225 148.525 196.847C149.401 196.091 150.345 195.562 151.452 195.272C152.155 195.093 152.784 194.74 153.407 194.441C153.709 193.99 153.957 193.587 154.197 193.237C154.826 192.884 155.401 192.579 155.867 191.987C155.984 191.838 156.149 191.697 156.354 191.615C156.969 191.369 157.421 190.884 157.867 190.453C158.696 189.69 159.43 188.915 160.299 188.213C161.06 187.605 161.786 186.883 162.384 186.036C162.624 185.686 162.946 185.456 163.227 185.166C164.125 184.25 165.159 183.406 165.936 182.309C166.355 181.711 166.869 181.125 167.506 180.718C167.82 180.542 168.108 180.199 168.349 179.849C169.742 178.126 171.183 176.409 172.834 174.938C172.889 174.89 172.999 174.796 173.061 174.695C173.289 174.071 173.775 173.699 174.132 173.202C174.544 172.657 174.949 172.165 175.273 171.554C175.603 170.889 175.975 170.284 176.482 169.752C177.271 168.93 177.835 167.969 178.399 167.008C179.211 165.644 180.247 164.418 180.882 162.922C181.013 162.666 181.239 162.424 181.417 162.175C182.694 160.6 183.849 158.845 184.772 157.005C185.157 156.293 185.577 155.694 186.043 155.102C186.682 154.314 187.232 153.46 187.605 152.474C187.826 151.904 188.143 151.346 188.5 150.849C188.919 150.25 189.242 149.639 189.485 148.908C189.713 148.284 190.037 147.673 190.36 147.061C190.794 146.356 191.267 145.71 191.748 145.01C192.182 144.305 192.615 143.599 192.824 142.755C192.914 142.439 192.854 142.159 192.897 141.838C193.13 141.542 193.356 141.299 193.59 141.003C193.701 140.527 193.813 140.051 193.834 139.891C195.127 137.827 196.289 136.019 196.586 133.769C196.841 133.312 197.129 132.969 197.329 132.559C197.605 131.941 197.793 131.258 198.069 130.64C198.352 129.969 198.771 129.37 199.006 128.693C199.317 127.808 199.493 126.85 199.756 125.958C199.937 125.328 200.124 124.644 200.448 124.033C201.467 122.205 201.846 120.075 202.633 118.163C203.157 115.671 203.96 113.27 204.198 110.739C204.234 110.471 204.317 110.21 204.4 109.949C205.318 109.252 205.643 108.26 205.608 107.056C205.589 106.836 205.665 106.628 205.646 106.407C205.738 105.711 205.871 105.074 206.194 104.463C206.656 103.543 206.75 102.465 206.94 101.4C207.219 101.492 207.078 101.091 207.072 100.764ZM325.233 398.962C324.959 399.198 324.63 399.482 324.356 399.718C323.472 400.528 322.547 401.277 321.704 402.147C321.087 402.774 320.422 403.394 319.968 404.261C319.63 404.979 319.122 405.512 318.479 405.971C318.055 406.242 317.657 406.68 317.219 407.058C315.52 408.523 314.112 410.353 312.373 411.758C312.208 411.9 312.092 412.048 311.975 412.196C311.522 412.681 311.11 413.226 310.617 413.651C309.624 414.556 308.63 415.46 307.806 416.55C307.511 416.947 307.127 417.277 306.839 417.621C306.945 418.289 307.415 418.406 307.789 418.51C308.641 418.677 309.548 418.797 310.414 418.857C311.811 418.933 313.218 418.574 314.65 418.764C314.793 418.783 314.943 418.748 315.045 418.707C316.178 418.585 317.278 418.349 318.396 418.333C319.467 418.311 320.573 418.022 321.506 418.309C322.162 418.123 322.675 417.918 323.221 417.827C324.764 417.541 326.247 416.974 327.809 416.908C327.856 416.915 327.911 416.867 327.959 416.874C329.175 416.49 330.363 416.32 331.584 416.263C333.289 416.217 334.975 415.949 336.645 416.17C337.17 416.24 337.661 416.196 338.2 416.158C338.494 416.143 338.76 415.96 338.81 415.585C338.874 415.103 338.575 414.791 338.325 414.485C336.76 412.37 335.195 410.255 333.575 408.188C333.081 407.523 332.422 406.999 332.037 406.24C331.956 406.12 331.82 406.048 331.738 405.928C330.606 404.579 329.419 403.277 328.294 401.874C327.46 400.838 326.4 400.043 325.45 399.154C325.519 399 325.423 398.987 325.233 398.962ZM317.618 390.105C317.293 389.626 317.097 389.273 316.894 388.974C316.053 387.99 315.212 387.007 314.412 386.083C313.782 385.346 313.151 384.608 312.473 383.865C312.052 383.373 311.577 382.928 311.074 382.698C310.16 382.632 309.686 383.278 309.437 384.062C308.869 385.786 307.947 387.244 307.243 388.895C306.601 390.446 305.646 391.791 305.229 393.48C304.091 395.837 303.233 398.285 302.416 400.793C302.021 401.939 301.722 403.099 301.375 404.252C301.271 404.674 301.104 405.198 301.477 405.683C302.009 405.699 302.555 405.608 303.001 405.176C303.672 404.502 304.392 403.834 305.064 403.16C305.345 402.87 305.578 402.574 305.9 402.344C306.653 401.79 307.365 401.175 307.868 400.315C307.991 400.114 308.211 399.925 308.382 399.729C309.499 398.624 310.61 397.571 311.72 396.519C311.891 396.324 312.063 396.129 312.234 395.933C313.016 395.165 313.804 394.342 314.586 393.574C315.038 393.089 315.532 392.663 315.984 392.178C316.513 391.485 316.987 390.839 317.618 390.105Z" fill="#9FCE00"/>
</svg>
